<svg xmlns="http://www.w3.org/2000/svg" width="800" height="450" viewBox="0 0 800 450">
<defs><linearGradient id="stone" x2="0" y2="1"><stop stop-color="#d8b783"/><stop offset="1" stop-color="#9a7048"/></linearGradient><linearGradient id="roof"><stop stop-color="#b95638"/><stop offset="1" stop-color="#71362f"/></linearGradient><filter id="glow"><feGaussianBlur stdDeviation="3"/></filter></defs>
<path d="M0 250Q150 210 285 250T540 245T800 230V450H0Z" fill="#b98c5b"/><g stroke="#8e6847" stroke-width="2" opacity=".5"><path d="M0 275Q200 260 400 275T800 270"/><path d="M0 289Q200 275 400 288T800 284"/><path d="M0 303Q200 290 400 301T800 298"/><path d="M0 317Q200 305 400 314T800 312"/><path d="M0 331Q200 320 400 327T800 326"/><path d="M0 345Q200 335 400 340T800 340"/><path d="M0 359Q200 350 400 353T800 354"/><path d="M0 373Q200 365 400 366T800 368"/><path d="M0 387Q200 380 400 379T800 382"/><path d="M0 401Q200 395 400 392T800 396"/><path d="M0 415Q200 410 400 405T800 410"/><path d="M0 429Q200 425 400 418T800 424"/><path d="M0 443Q200 440 400 431T800 438"/></g>
<g stroke="#5e463a" stroke-width="3"><g transform="translate(10 112)"><rect width="205" height="180" rx="4" fill="#e0c08e"/><path d="M-8 10L103-42 218 10Z" fill="url(#roof)"/><path d="M35 0v175M102 0v175M168 0v175" stroke="#6a4735" stroke-width="8"/><g fill="#ffcf6b"><rect x="18" y="42" width="28" height="35"/><rect x="82" y="42" width="32" height="35"/><rect x="150" y="42" width="30" height="35"/></g><path d="M15 105h178l-16 42H28Z" fill="#d96750"/></g>
<g transform="translate(585 118)"><rect width="205" height="175" fill="#d8b783"/><path d="M-8 5L98-40 215 5Z" fill="#43516b"/><path d="M32 0v170M100 0v170M170 0v170" stroke="#66483a" stroke-width="8"/><g fill="#ffd270"><rect x="16" y="38" width="30" height="36"/><rect x="83" y="38" width="32" height="36"/><rect x="153" y="38" width="30" height="36"/></g><path d="M18 102h176l-14 43H30Z" fill="#df8060"/></g></g>
<g transform="translate(400 305)"><ellipse rx="98" ry="37" fill="#705843" opacity=".35"/><ellipse cy="-10" rx="72" ry="28" fill="#7ec7e8" stroke="#d9c59f" stroke-width="12"/><rect x="-24" y="-70" width="48" height="62" fill="url(#stone)" stroke="#70584a" stroke-width="4"/><path d="M0-126l-17 50h34z" fill="#d9c59f"/><path d="M-15-70q-32 20-40 48M15-70q32 20 40 48" fill="none" stroke="#bfeaff" stroke-width="5"/></g>
<g fill="#233c58" stroke="#e2b64f" stroke-width="2"><path d="M145 145h28v76h-28z"/><path d="M630 150h28v76h-28z"/><path d="M525 190h25v68h-25z"/></g>
<g fill="#2b251f"><rect x="120" y="210" width="6" height="112"/><rect x="112" y="210" width="22" height="8"/><rect x="225" y="210" width="6" height="112"/><rect x="217" y="210" width="22" height="8"/><rect x="560" y="210" width="6" height="112"/><rect x="552" y="210" width="22" height="8"/><rect x="690" y="210" width="6" height="112"/><rect x="682" y="210" width="22" height="8"/></g>
<g fill="#ffd66d" filter="url(#glow)" opacity=".7"><circle cx="123" cy="214" r="10"/><circle cx="228" cy="214" r="10"/><circle cx="563" cy="214" r="10"/><circle cx="693" cy="214" r="10"/></g>
<g fill="#5e8b47"><circle cx="55" cy="295" r="9"/><circle cx="109" cy="313" r="10"/><circle cx="163" cy="331" r="11"/><circle cx="217" cy="295" r="12"/><circle cx="271" cy="313" r="9"/><circle cx="325" cy="331" r="10"/><circle cx="379" cy="295" r="11"/><circle cx="433" cy="313" r="12"/><circle cx="487" cy="331" r="9"/><circle cx="541" cy="295" r="10"/><circle cx="595" cy="313" r="11"/><circle cx="649" cy="331" r="12"/><circle cx="703" cy="295" r="9"/><circle cx="757" cy="313" r="10"/></g>
</svg>